<svg width="52.000000" height="52.000000" viewBox="0 0 52 52" fill="none" xmlns="http://www.w3.org/2000/svg" xmlns:xlink="http://www.w3.org/1999/xlink">
	<desc>
			Created with Pixso.
	</desc>
	<defs>
		<filter id="filter_21_6166_dd" x="9.404297" y="11.923828" width="21.785156" height="21.839355" filterUnits="userSpaceOnUse" color-interpolation-filters="sRGB">
			<feFlood flood-opacity="0" result="BackgroundImageFix"/>
			<feBlend mode="normal" in="SourceGraphic" in2="BackgroundImageFix" result="shape"/>
			<feGaussianBlur stdDeviation="2.29214" result="effect_layerBlur_1"/>
		</filter>
		<filter id="filter_21_6171_dd" x="15.416016" y="12.833496" width="25.992188" height="26.163574" filterUnits="userSpaceOnUse" color-interpolation-filters="sRGB">
			<feFlood flood-opacity="0" result="BackgroundImageFix"/>
			<feGaussianBlur in="BackgroundImage" stdDeviation="3.23597"/>
			<feComposite in2="SourceAlpha" operator="in" result="effect_backgroundBlur_1"/>
			<feBlend mode="normal" in="SourceGraphic" in2="effect_backgroundBlur_1" result="shape"/>
		</filter>
		<clipPath id="clip679_10335">
			<rect id="Frame 27" rx="12.000000" width="52.000000" height="52.000000" fill="white" fill-opacity="0"/>
		</clipPath>
		<linearGradient x1="20.104704" y1="16.502151" x2="35.625069" y2="35.917183" id="paint_linear_21_6171_0" gradientUnits="userSpaceOnUse">
			<stop stop-color="#FFFFFF" stop-opacity="0.250980"/>
			<stop offset="1.000000" stop-color="#FFFFFF" stop-opacity="0.000000"/>
		</linearGradient>
	</defs>
	<rect id="Frame 27" rx="12.000000" width="52.000000" height="52.000000" fill="transparent" fill-opacity="1.000000"/>
	<g clip-path="url(#clip679_10335)">
		<path id="Union" d="" fill="#FFFFFF" fill-opacity="1.000000" fill-rule="nonzero"/>
		<g filter="url(#filter_21_6166_dd)">
			<rect id="Rectangle 1037" x="19.287109" y="18.295898" rx="1.213487" width="7.842309" height="4.975507" transform="rotate(45.1998 19.287109 18.295898)" fill="#FFFFFF" fill-opacity="0.500000"/>
		</g>
		<g filter="url(#filter_21_6171_dd)">
			<mask id="mask_21_6171" fill="white">
				<path id="Union" d="M39.8223 20.1313L39.5352 19.8477L39.5332 19.8481L39.8223 20.1313ZM31.8945 28.2065L31.6055 27.9233L31.6055 27.9248L31.8945 28.2065ZM31.3809 28.4238L31.3828 28.0195L31.3809 28.0195L31.3809 28.4238ZM24.7422 28.4033L24.7441 27.9985L24.7422 27.9985L24.7422 28.4033ZM24.2109 28.1636L23.9102 28.4346L23.9102 28.4355L24.2109 28.1636ZM16.9238 20.0947L17.2246 19.8237L17.2246 19.8237L16.9238 20.0947ZM31.0137 30.627L31.0156 30.2227L31.0156 30.2227L31.0137 30.627ZM25.0977 30.6089L25.0957 31.0132L25.0957 31.0132L25.0977 30.6089ZM31.1289 35.5615L31.3027 35.9272L31.3027 35.9268L31.1289 35.5615ZM25.7578 38.1011L25.9297 38.4673L25.9316 38.4668L25.7578 38.1011ZM24.8594 38.0332L25.084 37.6968L25.084 37.6968L24.8594 38.0332ZM38.0059 13.2383L18.8184 13.2383L18.8184 14.0469L38.0059 14.0469L38.0059 13.2383ZM41.0039 16.333C41.0039 14.6372 39.6758 13.2383 38.0059 13.2383L38.0059 14.0469C39.2012 14.0469 40.1953 15.0557 40.1953 16.333L41.0039 16.333ZM41.0039 18.2129L41.0039 16.333L40.1953 16.333L40.1953 18.2129L41.0039 18.2129ZM40.1113 20.415C40.6836 19.8325 41.0039 19.0376 41.0039 18.2129L40.1953 18.2129C40.1953 18.8301 39.9551 19.4199 39.5352 19.8477L40.1113 20.415ZM32.1836 28.4902L40.1113 20.4146L39.5332 19.8481L31.6055 27.9233L32.1836 28.4902ZM31.377 28.8286C31.6816 28.8306 31.9727 28.707 32.1855 28.4888L31.6055 27.9248C31.543 27.9878 31.4629 28.02 31.3828 28.0195L31.377 28.8286ZM24.7402 28.8076L31.3789 28.8286L31.3809 28.0195L24.7441 27.9985L24.7402 28.8076ZM23.9102 28.4355C24.123 28.6694 24.4219 28.8076 24.7422 28.8076L24.7422 27.9985C24.6582 27.9985 24.5742 27.9629 24.5098 27.8921L23.9102 28.4355ZM16.625 20.3657L23.9102 28.4346L24.5098 27.8926L17.2246 19.8237L16.625 20.3657ZM15.8203 18.2544C15.8203 19.0356 16.1055 19.7915 16.625 20.3662L17.2246 19.8237C16.8438 19.4014 16.6289 18.8398 16.6289 18.2544L15.8203 18.2544ZM15.8203 16.3345L15.8203 18.2544L16.6289 18.2544L16.6289 16.3345L15.8203 16.3345ZM18.8184 13.2383C17.1484 13.2383 15.8203 14.6387 15.8203 16.3345L16.6289 16.3345C16.6289 15.0571 17.623 14.0469 18.8184 14.0469L18.8184 13.2383ZM31.0156 30.2227L25.0977 30.2041L25.0957 31.0132L31.0117 31.0312L31.0156 30.2227ZM32.0859 31.3208C32.0859 30.73 31.6211 30.2246 31.0156 30.2227L31.0117 31.0312C31.1445 31.0317 31.2773 31.1484 31.2773 31.3208L32.0859 31.3208ZM32.0859 34.6724L32.0859 31.3208L31.2773 31.3208L31.2773 34.6724L32.0859 34.6724ZM31.3027 35.9268C31.7852 35.6978 32.0859 35.2065 32.0859 34.6724L31.2773 34.6724C31.2773 34.9038 31.1465 35.105 30.9551 35.1963L31.3027 35.9268ZM25.9316 38.4668L31.3027 35.9272L30.957 35.1958L25.5859 37.7354L25.9316 38.4668ZM25.3672 38.5928C25.5586 38.5928 25.75 38.5513 25.9297 38.4673L25.5879 37.7344C25.5156 37.7676 25.4414 37.7837 25.3672 37.7837L25.3672 38.5928ZM24.6348 38.3701C24.8555 38.5171 25.1113 38.5928 25.3672 38.5928L25.3672 37.7837C25.2695 37.7837 25.1699 37.7549 25.084 37.6968L24.6348 38.3701ZM24.0215 37.2119C24.0215 37.6753 24.248 38.1133 24.6348 38.3701L25.084 37.6968C24.9297 37.5942 24.8301 37.4126 24.8301 37.2119L24.0215 37.2119ZM24.0215 31.3022L24.0215 37.2119L24.8301 37.2119L24.8301 31.3022L24.0215 31.3022ZM25.0996 30.2041C24.4902 30.2021 24.0215 30.7085 24.0215 31.3022L24.8301 31.3022C24.8301 31.1284 24.9629 31.0127 25.0957 31.0132L25.0996 30.2041Z" fill="" fill-opacity="1.000000" fill-rule="nonzero"/>
			</mask>
			<path id="Union" d="M39.8223 20.1313L39.5352 19.8477L39.5332 19.8481L39.8223 20.1313ZM31.8945 28.2065L31.6055 27.9233L31.6055 27.9248L31.8945 28.2065ZM31.3809 28.4238L31.3828 28.0195L31.3809 28.0195L31.3809 28.4238ZM24.7422 28.4033L24.7441 27.9985L24.7422 27.9985L24.7422 28.4033ZM24.2109 28.1636L23.9102 28.4346L23.9102 28.4355L24.2109 28.1636ZM16.9238 20.0947L17.2246 19.8237L17.2246 19.8237L16.9238 20.0947ZM31.0137 30.627L31.0156 30.2227L31.0156 30.2227L31.0137 30.627ZM25.0977 30.6089L25.0957 31.0132L25.0957 31.0132L25.0977 30.6089ZM31.1289 35.5615L31.3027 35.9272L31.3027 35.9268L31.1289 35.5615ZM25.7578 38.1011L25.9297 38.4673L25.9316 38.4668L25.7578 38.1011ZM24.8594 38.0332L25.084 37.6968L25.084 37.6968L24.8594 38.0332ZM38.0059 13.2383L18.8184 13.2383L18.8184 14.0469L38.0059 14.0469L38.0059 13.2383ZM41.0039 16.333C41.0039 14.6372 39.6758 13.2383 38.0059 13.2383L38.0059 14.0469C39.2012 14.0469 40.1953 15.0557 40.1953 16.333L41.0039 16.333ZM41.0039 18.2129L41.0039 16.333L40.1953 16.333L40.1953 18.2129L41.0039 18.2129ZM40.1113 20.415C40.6836 19.8325 41.0039 19.0376 41.0039 18.2129L40.1953 18.2129C40.1953 18.8301 39.9551 19.4199 39.5352 19.8477L40.1113 20.415ZM32.1836 28.4902L40.1113 20.4146L39.5332 19.8481L31.6055 27.9233L32.1836 28.4902ZM31.377 28.8286C31.6816 28.8306 31.9727 28.707 32.1855 28.4888L31.6055 27.9248C31.543 27.9878 31.4629 28.02 31.3828 28.0195L31.377 28.8286ZM24.7402 28.8076L31.3789 28.8286L31.3809 28.0195L24.7441 27.9985L24.7402 28.8076ZM23.9102 28.4355C24.123 28.6694 24.4219 28.8076 24.7422 28.8076L24.7422 27.9985C24.6582 27.9985 24.5742 27.9629 24.5098 27.8921L23.9102 28.4355ZM16.625 20.3657L23.9102 28.4346L24.5098 27.8926L17.2246 19.8237L16.625 20.3657ZM15.8203 18.2544C15.8203 19.0356 16.1055 19.7915 16.625 20.3662L17.2246 19.8237C16.8438 19.4014 16.6289 18.8398 16.6289 18.2544L15.8203 18.2544ZM15.8203 16.3345L15.8203 18.2544L16.6289 18.2544L16.6289 16.3345L15.8203 16.3345ZM18.8184 13.2383C17.1484 13.2383 15.8203 14.6387 15.8203 16.3345L16.6289 16.3345C16.6289 15.0571 17.623 14.0469 18.8184 14.0469L18.8184 13.2383ZM31.0156 30.2227L25.0977 30.2041L25.0957 31.0132L31.0117 31.0312L31.0156 30.2227ZM32.0859 31.3208C32.0859 30.73 31.6211 30.2246 31.0156 30.2227L31.0117 31.0312C31.1445 31.0317 31.2773 31.1484 31.2773 31.3208L32.0859 31.3208ZM32.0859 34.6724L32.0859 31.3208L31.2773 31.3208L31.2773 34.6724L32.0859 34.6724ZM31.3027 35.9268C31.7852 35.6978 32.0859 35.2065 32.0859 34.6724L31.2773 34.6724C31.2773 34.9038 31.1465 35.105 30.9551 35.1963L31.3027 35.9268ZM25.9316 38.4668L31.3027 35.9272L30.957 35.1958L25.5859 37.7354L25.9316 38.4668ZM25.3672 38.5928C25.5586 38.5928 25.75 38.5513 25.9297 38.4673L25.5879 37.7344C25.5156 37.7676 25.4414 37.7837 25.3672 37.7837L25.3672 38.5928ZM24.6348 38.3701C24.8555 38.5171 25.1113 38.5928 25.3672 38.5928L25.3672 37.7837C25.2695 37.7837 25.1699 37.7549 25.084 37.6968L24.6348 38.3701ZM24.0215 37.2119C24.0215 37.6753 24.248 38.1133 24.6348 38.3701L25.084 37.6968C24.9297 37.5942 24.8301 37.4126 24.8301 37.2119L24.0215 37.2119ZM24.0215 31.3022L24.0215 37.2119L24.8301 37.2119L24.8301 31.3022L24.0215 31.3022ZM25.0996 30.2041C24.4902 30.2021 24.0215 30.7085 24.0215 31.3022L24.8301 31.3022C24.8301 31.1284 24.9629 31.0127 25.0957 31.0132L25.0996 30.2041Z" fill="#FFFFFF" fill-opacity="0.350000" fill-rule="nonzero" mask="url(#mask_21_6171)"/>
			<path id="Union" d="M18.8184 12.8335L38.0059 12.8335Q38.3789 12.8335 38.7341 12.913Q39.0448 12.9825 39.3418 13.1128Q39.5917 13.2224 39.8177 13.3687Q40.1447 13.5804 40.4219 13.8691Q40.6331 14.0886 40.8012 14.3372Q41.0045 14.6379 41.1445 14.9814Q41.2613 15.2678 41.3263 15.5655Q41.4082 15.9403 41.4082 16.333L41.4082 18.2129Q41.4082 18.5736 41.3384 18.9202Q41.273 19.2446 41.1465 19.5566Q40.9967 19.9278 40.7739 20.2483Q40.6075 20.4877 40.4004 20.6987Q40.3947 20.7045 40.3889 20.71L32.4727 28.7734Q32.466 28.7802 32.4592 28.7866Q32.3513 28.8944 32.2269 28.9774Q32.1074 29.057 31.9727 29.1138Q31.8222 29.1775 31.6653 29.2071Q31.5237 29.2339 31.377 29.2329L31.375 29.2329L31.3736 29.2329L24.7422 29.2124L24.7402 29.2124L24.7398 29.2124Q24.576 29.2122 24.4197 29.178Q24.2658 29.1445 24.1191 29.0781Q23.9922 29.0206 23.8794 28.9427Q23.7455 28.8502 23.6315 28.7289Q23.6202 28.718 23.6094 28.7061L23.609 28.7056L16.3242 20.6372Q16.1384 20.4316 15.9893 20.2021Q15.7857 19.8889 15.6504 19.5312Q15.5395 19.2399 15.481 18.9383Q15.416 18.6027 15.416 18.2544L15.416 16.3345Q15.416 15.9352 15.5006 15.5547Q15.5653 15.2633 15.6797 14.9829Q15.8247 14.6269 16.037 14.3169Q16.1991 14.0801 16.4004 13.8701Q16.6869 13.5727 17.0254 13.3569Q17.2432 13.2182 17.4824 13.1133Q17.7806 12.9823 18.0924 12.9126Q18.4466 12.8335 18.8184 12.8335ZM24.786 27.5944L17.5371 19.5657Q17.5314 19.5589 17.5254 19.5522Q17.4375 19.4553 17.3648 19.3481Q17.2419 19.167 17.1621 18.9565Q17.1047 18.8061 17.0729 18.6504Q17.0332 18.4565 17.0332 18.2544L17.0332 16.3345Q17.0332 16.0772 17.0959 15.8363Q17.1284 15.7114 17.1777 15.5908Q17.2611 15.3875 17.3846 15.2125Q17.4667 15.0963 17.5664 14.9927Q17.7264 14.8266 17.9166 14.7094Q18.0211 14.6449 18.1348 14.5952Q18.2922 14.5259 18.4568 14.4901Q18.6334 14.4517 18.8184 14.4517L38.0059 14.4517Q38.1908 14.4517 38.3674 14.4901Q38.5321 14.5259 38.6895 14.5952Q38.805 14.6457 38.9111 14.7114Q39.0992 14.828 39.2578 14.9922Q39.3597 15.098 39.4431 15.2169Q39.5643 15.3896 39.6465 15.5898Q39.697 15.7133 39.7299 15.8414Q39.791 16.0793 39.791 16.333L39.791 18.2129Q39.791 18.4192 39.7497 18.6168Q39.7143 18.7864 39.6484 18.9497Q39.5581 19.1715 39.4208 19.3588Q39.3413 19.4671 39.2461 19.564Q39.2397 19.5705 39.2336 19.5772L31.3429 27.6151L24.786 27.5944ZM40.014 20.3192L39.8223 20.1313L39.5352 19.8477L39.8227 20.1309L40.014 20.3192ZM31.3809 28.2693L31.3809 28.0195L31.3805 28.1525L31.3805 28.1548L31.3803 28.2687L31.3803 28.2688L31.3803 28.2706L31.3803 28.2708L31.3799 28.4238L31.3809 28.2892L31.3809 28.2693ZM25.7715 38.1279L25.7674 38.1192L25.7715 38.1281L25.8158 38.223L25.9315 38.4665L25.7715 38.1279ZM31.668 35.7529L31.6674 35.7532L31.668 35.7544Q31.7392 35.9059 31.6825 36.0636Q31.6291 36.2123 31.4917 36.2844Q31.6307 36.2119 31.6839 36.0621Q31.74 35.9042 31.668 35.7529ZM15.8203 16.3345L15.8203 18.2544C15.8203 18.3902 15.8289 18.5252 15.8459 18.6587C15.9094 19.1583 16.0899 19.6356 16.3735 20.0479C16.4499 20.159 16.5339 20.2654 16.625 20.3662L16.6365 20.3785L16.8963 20.6662L23.6391 28.1344L23.6396 28.1349L23.9102 28.4346L24.2105 28.1631L24.3099 28.0732L24.2106 28.1632L24.0917 28.271L23.9102 28.4346L23.9102 28.4355C23.9181 28.4443 23.9262 28.4529 23.9344 28.4614C24.0228 28.5528 24.1248 28.6284 24.2362 28.6854L24.2363 28.6854L24.2363 28.6854L24.2364 28.6855C24.2689 28.7021 24.3023 28.7172 24.3363 28.7306L24.3379 28.7312C24.4643 28.7807 24.6002 28.8074 24.7402 28.8076L24.7422 28.8076L25.1465 28.8089L30.9727 28.8273L31.377 28.8286L31.3778 28.8286L31.3789 28.8286C31.5181 28.8293 31.6545 28.8037 31.7818 28.7549L31.7834 28.7543C31.8051 28.7459 31.8266 28.7369 31.8477 28.7272L31.8488 28.7267C31.973 28.6695 32.087 28.5895 32.1847 28.4896L32.1855 28.4888L32.1853 28.4885L32.1961 28.4775L32.4683 28.2002L39.8281 20.7031L40.1111 20.4148L40.1135 20.4128C40.2078 20.3166 40.2953 20.2147 40.3755 20.1078L40.3757 20.1075C40.7012 19.6739 40.9088 19.159 40.9781 18.6172C40.9952 18.4838 41.0039 18.3487 41.0039 18.2129L41.0039 16.333C41.0039 16.1961 40.9953 16.0612 40.9785 15.9287C40.8044 14.5553 39.7554 13.4523 38.4102 13.266C38.2781 13.2477 38.1431 13.2383 38.0059 13.2383L18.8184 13.2383C18.6811 13.2383 18.5462 13.2477 18.4141 13.2661C17.069 13.4525 16.0201 14.5563 15.8458 15.9297C15.829 16.0623 15.8203 16.1974 15.8203 16.3345ZM17.2246 19.8237C17.1339 19.7232 17.0526 19.6147 16.9814 19.4999C16.8231 19.2447 16.7146 18.9582 16.6631 18.6574C16.6405 18.5253 16.6289 18.3905 16.6289 18.2544L16.6289 16.3345C16.6289 16.1965 16.6405 16.0617 16.6627 15.9309C16.8224 14.9898 17.5308 14.2584 18.4157 14.0857C18.5465 14.0602 18.6811 14.0469 18.8184 14.0469L38.0059 14.0469C38.1431 14.0469 38.2777 14.0602 38.4085 14.0857C39.2936 14.2582 40.0021 14.9888 40.1616 15.93C40.1837 16.0606 40.1953 16.1952 40.1953 16.333L40.1953 18.2129C40.1953 18.349 40.1836 18.4838 40.1609 18.6159C40.1039 18.9473 39.9773 19.2612 39.7914 19.5347C39.7274 19.6289 39.6564 19.7183 39.5788 19.8019C39.5647 19.8172 39.5503 19.8322 39.5357 19.8471L39.5352 19.8477L39.5332 19.8481L39.3549 20.0298L39.2504 20.1362L39.25 20.1366L31.8887 27.6348L31.8878 27.6358L31.7249 27.8016L31.7236 27.803L31.7213 27.8054L31.6055 27.9233L31.6055 27.9248C31.5996 27.9307 31.5936 27.9363 31.5875 27.9417C31.528 27.9935 31.4554 28.02 31.3828 28.0195L31.3809 28.0195L31.2118 28.019L31.2105 28.019L30.9785 28.0183L30.9766 28.0183L25.1484 27.9998L25.1465 27.9998L24.9015 27.999L24.7441 27.9985L24.7422 27.9985L24.7397 27.9985C24.6565 27.9978 24.5736 27.9622 24.5098 27.8921L24.4985 27.8801L24.4048 27.7763L24.4041 27.7755L24.2394 27.5931L24.2385 27.5921L17.4959 20.1242L17.4957 20.1239L17.2246 19.8237ZM25.0996 29.7998L31.0149 29.8179L31.0156 29.8179L31.0176 29.8179Q31.1901 29.8184 31.3533 29.8576Q31.4802 29.8881 31.6016 29.9419Q31.715 29.9919 31.8171 30.0593Q31.9539 30.1496 32.0703 30.271Q32.162 30.367 32.2347 30.4757Q32.3199 30.6031 32.3789 30.748Q32.4313 30.8775 32.4591 31.0121Q32.4902 31.1632 32.4902 31.3208L32.4902 34.6724Q32.4902 34.9401 32.4176 35.1865Q32.3498 35.4163 32.2188 35.6274Q32.0741 35.8598 31.8767 36.0314Q31.7004 36.1846 31.4819 36.2895Q31.4792 36.2907 31.4766 36.292L31.4766 36.2925L31.4755 36.2925L31.4746 36.293Q31.3242 36.3636 31.1674 36.3079Q31.0095 36.2519 30.9375 36.1006L30.9372 36.1001L31.1461 36.0013L31.3027 35.9272L31.3027 35.9268L31.3052 35.9256C31.4301 35.866 31.5427 35.7888 31.6411 35.6979L31.6412 35.6978L31.6416 35.6975C31.823 35.5296 31.9558 35.3148 32.0268 35.0771C32.0655 34.9477 32.0859 34.8115 32.0859 34.6724L32.0859 35.0771L32.0859 34.2681L32.0859 31.7251C32.0859 31.179 32.0592 31.0422 32.0101 30.916C31.9034 30.6416 31.6912 30.4178 31.4197 30.304L31.4195 30.3039C31.2958 30.2521 31.1597 30.2231 31.0156 30.2227L30.6113 30.2214L25.5039 30.2054L25.0996 30.2041L25.0977 30.2041C24.9535 30.2039 24.8172 30.2321 24.6932 30.2833C24.4188 30.3964 24.2044 30.6214 24.0971 30.8979C24.0482 31.0239 24.0215 31.1606 24.0215 31.3022L24.0215 37.2119C24.0215 37.3503 24.0417 37.4865 24.0804 37.6162C24.1324 37.7908 24.2178 37.9538 24.3324 38.095L24.3325 38.0952C24.4166 38.1989 24.5164 38.2908 24.6301 38.367L24.6348 38.3701L24.6361 38.371C24.7386 38.4391 24.8487 38.4918 24.9629 38.5288C24.9771 38.5334 24.9914 38.5377 25.0057 38.5418C25.1237 38.5756 25.2454 38.5928 25.3672 38.5928C25.4236 38.5928 25.48 38.5892 25.536 38.5819L25.5362 38.5819L25.5388 38.5816L25.539 38.5816C25.6173 38.5713 25.6951 38.5539 25.7715 38.5294C25.8246 38.5124 25.877 38.4919 25.9284 38.4679L25.9297 38.4673L25.9316 38.4668L25.9886 38.4399L26.296 38.2945L26.2969 38.2941L30.9358 36.1007L31.4743 36.2931L26.1223 38.8236Q26.1122 38.829 26.1016 38.834L26.1012 38.8341Q25.9217 38.9178 25.7329 38.9585Q25.5542 38.9971 25.3672 38.9971Q25.1126 38.9971 24.8785 38.9278Q24.6331 38.8552 24.4102 38.7065Q24.2411 38.5939 24.1054 38.4499Q23.9415 38.2761 23.8262 38.0566Q23.7236 37.8624 23.6714 37.6554Q23.6172 37.4405 23.6172 37.2119L23.6172 31.3022Q23.6172 31.1519 23.6459 31.0072Q23.6742 30.8643 23.7305 30.7271Q23.7882 30.5849 23.8714 30.4597Q23.946 30.3475 24.041 30.249Q24.166 30.1199 24.3135 30.0261Q24.408 29.966 24.5117 29.9204Q24.651 29.8602 24.7966 29.83Q24.9449 29.7993 25.0996 29.7998ZM31.139 35.054C31.1778 35.0082 31.2097 34.956 31.233 34.8991Q31.174 34.844 31.0917 34.8147Q30.99 34.7785 30.891 34.7955Q30.873 34.7376 30.873 34.6724Q30.873 34.5049 30.9915 34.3865Q31.1099 34.2681 31.2773 34.2681L31.2773 31.7251Q31.1099 31.7251 30.9915 31.6067Q30.9159 31.5311 30.8886 31.4356Q30.8783 31.4144 30.873 31.4125L30.873 31.4356L25.2344 31.4179L25.2344 37.2119Q25.2344 37.2777 25.2656 37.321Q25.2795 37.3402 25.2996 37.3549Q25.3041 37.3578 25.3086 37.3608L25.3086 37.3612L25.3086 37.3611Q25.3323 37.3764 25.3573 37.3789Q25.3622 37.3794 25.3672 37.3794Q25.3761 37.3794 25.3848 37.3779Q25.4008 37.3753 25.416 37.3677Q25.4192 37.3662 25.4225 37.3647L30.7812 34.831L30.7832 34.8301Q30.7844 34.8296 30.7856 34.829L30.891 34.7955Q30.9192 34.8864 30.9917 34.9589Q31.0578 35.0248 31.139 35.054L30.6074 31.0303Q30.6068 31.1969 30.7242 31.3156Q30.7907 31.3828 30.873 31.4125L30.873 31.3208L31.0117 31.436Q31.1648 31.4364 31.2773 31.3378L31.2773 31.3208C31.2773 31.1484 31.1445 31.0317 31.0117 31.0312L31.0111 31.0312L30.9949 31.0312L30.6074 31.03L25.5 31.0144L25.1128 31.0132L25.0957 31.0132C24.9629 31.0127 24.8301 31.1284 24.8301 31.3022L24.8301 37.2119C24.8301 37.2644 24.8369 37.3156 24.8497 37.3644L24.8498 37.3647C24.8723 37.4501 24.9132 37.5282 24.9681 37.5932C24.9767 37.6034 24.9857 37.6133 24.9949 37.6228C25.0219 37.6505 25.0517 37.6753 25.0839 37.6967L25.084 37.6968L25.0892 37.7003C25.1183 37.7194 25.1489 37.7352 25.1804 37.7478C25.2407 37.7718 25.3043 37.7837 25.3672 37.7837C25.4056 37.7837 25.4439 37.7794 25.482 37.7706L25.4823 37.7706C25.5178 37.7624 25.5531 37.7504 25.5879 37.7344L25.7523 37.6567L25.9512 37.5626L25.9525 37.5621L30.5896 35.3695L30.5901 35.3693L30.9394 35.2041L30.9552 35.1966L30.9551 35.1963C31.0258 35.1625 31.0883 35.1138 31.139 35.054ZM25.2187 31.4179Q25.2215 31.408 25.2238 31.398Q25.2291 31.3963 25.2344 31.3944L25.2344 31.3941Q25.3146 31.3651 25.3802 31.3001Q25.4992 31.1821 25.5 31.0146Q25.5 31.1809 25.3825 31.2987Q25.3162 31.3651 25.2344 31.3944L25.0957 31.4175L25.0964 31.4175L25.0964 31.4175L25.2187 31.4179Z" clip-rule="evenodd" fill="url(#paint_linear_21_6171_0)" fill-opacity="1.000000" fill-rule="evenodd"/>
		</g>
	</g>
</svg>
