<svg width="41.195312" height="41.196289" viewBox="0 0 41.1953 41.1963" fill="none" xmlns="http://www.w3.org/2000/svg" xmlns:xlink="http://www.w3.org/1999/xlink">
	<desc>
			Created with Pixso.
	</desc>
	<defs/>
	<path id="Rectangle 17" d="M0 4.47C0 2 2 0 4.47 0L14.4 0C16.87 0 18.88 2 18.88 4.47L18.88 14.4C18.88 16.87 16.87 18.88 14.4 18.88L4.47 18.88C2 18.88 0 16.87 0 14.4L0 4.47Z" fill="#FFFFFF" fill-opacity="1.000000" fill-rule="nonzero"/>
	<path id="Vector" d="M41.19 4.47L41.19 14.4C41.19 16.87 39.18 18.88 36.71 18.88L26.86 18.88C25.97 18.88 25.16 18.99 24.44 19.15C21.82 19.76 19.74 21.84 19.14 24.46C18.99 25.12 18.89 25.86 18.87 26.67L18.87 26.69C18.88 26.72 18.88 26.75 18.88 26.79L18.88 36.72C18.88 39.19 16.87 41.19 14.4 41.19L4.47 41.19C2 41.19 0 39.19 0 36.72L0 26.79C0 24.31 2 22.31 4.47 22.31L14.4 22.31C14.44 22.31 14.48 22.31 14.52 22.31L14.52 22.31C15.29 22.3 15.98 22.21 16.61 22.07C19.31 21.49 21.47 19.35 22.06 16.65C22.21 15.96 22.31 15.18 22.31 14.33L22.31 4.47C22.31 2 24.31 0 26.78 0L36.71 0C39.18 0 41.19 2 41.19 4.47Z" fill="#F9BF29" fill-opacity="1.000000" fill-rule="nonzero"/>
	<path id="Rectangle 16" d="M22.31 26.79C22.31 24.31 24.31 22.31 26.78 22.31L36.72 22.31C39.19 22.31 41.19 24.31 41.19 26.79L41.19 36.71C41.19 39.19 39.19 41.19 36.72 41.19L26.78 41.19C24.31 41.19 22.31 39.19 22.31 36.71L22.31 26.79Z" fill="#FFFFFF" fill-opacity="1.000000" fill-rule="nonzero"/>
</svg>
